name analog
datacolumns 19
datarows 69
range 0.2105 0.2445
endheader
time	ground_force_vx	ground_force_vy	ground_force_vz	ground_force_px	ground_force_py	ground_force_pz	l_ground_force_vx	l_ground_force_vy	l_ground_force_vz	l_ground_force_px	l_ground_force_py	l_ground_force_pz	ground_torque_x	ground_torque_y	ground_torque_z	l_ground_torque_x	l_ground_torque_y	l_ground_torque_z
0.2105	-0.0	-0.0	-0.0	-0.0	-0.0	-0.0	-2.4410858154296875	2.540014743804932	-774.2376098632812	-0.0	-0.0	-0.0	-0.0	-0.0	-0.0	235891.078125	645.4153442382812	-2388.531494140625
0.211	-0.0	-0.0	-0.0	-0.0	-0.0	-0.0	-1.5967941284179688	3.0455105304718018	-774.5866088867188	-0.0	-0.0	-0.0	-0.0	-0.0	-0.0	236393.796875	110.54024505615234	-2233.380859375
0.2115	-0.0	-0.0	-0.0	-0.0	-0.0	-0.0	-1.642819046974182	2.999612808227539	-776.1771850585938	-0.0	-0.0	-0.0	-0.0	-0.0	-0.0	236511.125	-228.7296905517578	-2061.498779296875
0.212	-0.0	-0.0	-0.0	-0.0	-0.0	-0.0	-1.5080833435058594	3.006411075592041	-776.1640625	-0.0	-0.0	-0.0	-0.0	-0.0	-0.0	236463.09375	-307.42169189453125	-2171.741455078125
0.2125	-0.0	-0.0	-0.0	-0.0	-0.0	-0.0	-1.355539083480835	2.1868577003479004	-775.99658203125	-0.0	-0.0	-0.0	-0.0	-0.0	-0.0	236558.46875	-694.6240234375	-2114.8740234375
0.213	-0.0	-0.0	-0.0	-0.0	-0.0	-0.0	-1.4868429899215698	2.006518602371216	-775.81494140625	-0.0	-0.0	-0.0	-0.0	-0.0	-0.0	236373.09375	-960.1160278320312	-2046.11279296875
0.2135	-0.0	-0.0	-0.0	-0.0	-0.0	-0.0	-1.0355278253555298	1.6109001636505127	-774.4183349609375	-0.0	-0.0	-0.0	-0.0	-0.0	-0.0	235960.640625	-777.409912109375	-2277.368408203125
0.214	-0.0	-0.0	-0.0	-0.0	-0.0	-0.0	-1.4869080781936646	0.8581422567367554	-776.5447998046875	-0.0	-0.0	-0.0	-0.0	-0.0	-0.0	235742.671875	-754.9313354492188	-2313.293701171875
0.2145	-0.0	-0.0	-0.0	-0.0	-0.0	-0.0	-1.909361720085144	0.5720201730728149	-773.9859008789062	-0.0	-0.0	-0.0	-0.0	-0.0	-0.0	235690.75	-956.0873413085938	-2388.472412109375
0.215	-0.0	-0.0	-0.0	-0.0	-0.0	-0.0	-2.3908815383911133	0.0420154258608818	-773.4369506835938	-0.0	-0.0	-0.0	-0.0	-0.0	-0.0	235452.484375	-966.190185546875	-2586.634521484375
0.2155	-0.0	-0.0	-0.0	-0.0	-0.0	-0.0	-3.371009826660156	-0.1766433715820312	-776.1640625	-0.0	-0.0	-0.0	-0.0	-0.0	-0.0	235699.203125	-1053.0888671875	-2981.446044921875
0.216	-0.0	-0.0	-0.0	-0.0	-0.0	-0.0	-3.6956772804260254	-0.8877671360969543	-777.6434326171875	-0.0	-0.0	-0.0	-0.0	-0.0	-0.0	235965.546875	-954.38037109375	-3272.93212890625
0.2165	-0.0	-0.0	-0.0	-0.0	-0.0	-0.0	-4.419261932373047	-1.812944293022156	-781.8516845703125	-0.0	-0.0	-0.0	-0.0	-0.0	-0.0	237075.828125	-1031.6087646484375	-3303.333251953125
0.217	-0.0	-0.0	-0.0	-0.0	-0.0	-0.0	-4.237157344818115	-1.84990656375885	-785.7561645507812	-0.0	-0.0	-0.0	-0.0	-0.0	-0.0	237872.71875	-1868.73681640625	-3318.846923828125
0.2175	-0.0	-0.0	-0.0	-0.0	-0.0	-0.0	-4.122567653656006	-2.103821992874145	-788.961181640625	-0.0	-0.0	-0.0	-0.0	-0.0	-0.0	239294.59375	-1988.4342041015625	-3317.177001953125
0.218	-0.0	-0.0	-0.0	-0.0	-0.0	-0.0	-4.148508548736572	-2.384685516357422	-794.3400268554688	-0.0	-0.0	-0.0	-0.0	-0.0	-0.0	239939.15625	-2556.446533203125	-3348.6044921875
0.2185	-0.0	-0.0	-0.0	-0.0	-0.0	-0.0	-3.3918707370758057	-2.072937488555908	-797.3594970703125	-0.0	-0.0	-0.0	-0.0	-0.0	-0.0	240813.21875	-2763.6142578125	-3252.03173828125
0.219	-0.0	-0.0	-0.0	-0.0	-0.0	-0.0	-2.3898134231567383	-2.722584724426269	-798.734619140625	-0.0	-0.0	-0.0	-0.0	-0.0	-0.0	241514.171875	-3258.746337890625	-3064.75341796875
0.2195	-0.0	-0.0	-0.0	-0.0	-0.0	-0.0	-2.338331699371338	-2.7379722595214844	-801.4065551757812	-0.0	-0.0	-0.0	-0.0	-0.0	-0.0	241912.953125	-3658.777099609375	-3035.04443359375
0.22	-0.0	-0.0	-0.0	-0.0	-0.0	-0.0	-1.6383106708526611	-2.846961259841919	-801.7337646484375	-0.0	-0.0	-0.0	-0.0	-0.0	-0.0	242253.484375	-3931.78271484375	-3024.47607421875
0.2205	-0.0	-0.0	-0.0	-0.0	-0.0	-0.0	-1.466621994972229	-3.06485652923584	-801.302978515625	-0.0	-0.0	-0.0	-0.0	-0.0	-0.0	242260.953125	-4397.611328125	-2828.77294921875
0.221	-0.0	-0.0	-0.0	-0.0	-0.0	-0.0	-0.8871078491210938	-3.4592361450195312	-803.130126953125	-0.0	-0.0	-0.0	-0.0	-0.0	-0.0	242354.453125	-4615.18115234375	-2760.265380859375
0.2215	-0.0	-0.0	-0.0	-0.0	-0.0	-0.0	-0.6622868776321411	-3.7300758361816406	-803.0726318359375	-0.0	-0.0	-0.0	-0.0	-0.0	-0.0	242272.671875	-5166.94873046875	-2600.87548828125
0.222	-0.0	-0.0	-0.0	-0.0	-0.0	-0.0	-0.2455043494701385	-4.483868598937988	-802.7564086914062	-0.0	-0.0	-0.0	-0.0	-0.0	-0.0	242274.28125	-5671.54296875	-2390.30517578125
0.2225	-0.0	-0.0	-0.0	-0.0	-0.0	-0.0	0.3690849244594574	-4.368762969970703	-801.652099609375	-0.0	-0.0	-0.0	-0.0	-0.0	-0.0	241840.34375	-6219.58642578125	-2264.322509765625
0.223	-0.0	-0.0	-0.0	-0.0	-0.0	-0.0	0.709686279296875	-3.933550119400024	-800.5790405273438	-0.0	-0.0	-0.0	-0.0	-0.0	-0.0	241485.421875	-6724.599609375	-2083.849853515625
0.2235	-0.0	-0.0	-0.0	-0.0	-0.0	-0.0	1.9721550941467283	-3.906581878662109	-799.9063720703125	-0.0	-0.0	-0.0	-0.0	-0.0	-0.0	241457.859375	-7160.72607421875	-1831.899169921875
0.224	-0.0	-0.0	-0.0	-0.0	-0.0	-0.0	3.575678586959839	-3.1047182083129883	-797.6235961914062	-0.0	-0.0	-0.0	-0.0	-0.0	-0.0	240614.796875	-7654.32080078125	-1399.236083984375
0.2245	-0.0	-0.0	-0.0	-0.0	-0.0	-0.0	4.060245513916016	-2.8535335063934326	-793.7020874023438	-0.0	-0.0	-0.0	-0.0	-0.0	-0.0	239922.765625	-8196.78515625	-1006.41455078125
0.225	-0.0	-0.0	-0.0	-0.0	-0.0	-0.0	4.108168125152588	-2.669973850250244	-791.0169067382812	-0.0	-0.0	-0.0	-0.0	-0.0	-0.0	239052.5625	-8176.77783203125	-1029.1719970703125
0.2255	-0.0	-0.0	-0.0	-0.0	-0.0	-0.0	4.03276252746582	-2.5887529850006104	-788.9221801757812	-0.0	-0.0	-0.0	-0.0	-0.0	-0.0	238224.09375	-8445.5361328125	-1022.3953857421876
0.226	-0.0	-0.0	-0.0	-0.0	-0.0	-0.0	4.285775184631348	-2.874091863632202	-786.0203857421875	-0.0	-0.0	-0.0	-0.0	-0.0	-0.0	237419.703125	-8445.5791015625	-946.9312133789062
0.2265	-0.0	-0.0	-0.0	-0.0	-0.0	-0.0	4.374598503112793	-2.553905248641968	-784.2745361328125	-0.0	-0.0	-0.0	-0.0	-0.0	-0.0	236776.34375	-8557.3818359375	-889.9520263671875
0.227	-0.0	-0.0	-0.0	-0.0	-0.0	-0.0	4.2784037590026855	-2.561328887939453	-781.93994140625	-0.0	-0.0	-0.0	-0.0	-0.0	-0.0	236627.953125	-8751.0595703125	-834.9843139648438
0.2275	-0.0	-0.0	-0.0	-0.0	-0.0	-0.0	3.705604553222656	-2.601648330688477	-781.1622924804688	-0.0	-0.0	-0.0	-0.0	-0.0	-0.0	236207.0	-8967.46875	-805.725341796875
0.228	-0.0	-0.0	-0.0	-0.0	-0.0	-0.0	3.665219783782959	-2.2281644344329834	-781.5118408203125	-0.0	-0.0	-0.0	-0.0	-0.0	-0.0	236192.28125	-9281.921875	-885.2499389648438
0.2285	-0.0	-0.0	-0.0	-0.0	-0.0	-0.0	3.4878814220428467	-2.0113039016723637	-781.3846435546875	-0.0	-0.0	-0.0	-0.0	-0.0	-0.0	236633.203125	-9601.05078125	-1009.2752075195312
0.229	-0.0	-0.0	-0.0	-0.0	-0.0	-0.0	3.0564584732055664	-1.5415836572647097	-783.4169311523438	-0.0	-0.0	-0.0	-0.0	-0.0	-0.0	237034.828125	-10298.611328125	-956.9213256835938
0.2295	-0.0	-0.0	-0.0	-0.0	-0.0	-0.0	3.983708143234253	-1.1281616687774658	-786.1636962890625	-0.0	-0.0	-0.0	-0.0	-0.0	-0.0	237778.875	-10698.685546875	-725.606201171875
0.23	-0.0	-0.0	-0.0	-0.0	-0.0	-0.0	4.939335346221924	-0.7265661358833313	-787.5279541015625	-0.0	-0.0	-0.0	-0.0	-0.0	-0.0	238577.15625	-11414.8134765625	-275.97247314453125
0.2305	-0.0	-0.0	-0.0	-0.0	-0.0	-0.0	6.41872501373291	-0.2734653949737549	-788.8123779296875	-0.0	-0.0	-0.0	-0.0	-0.0	-0.0	238904.40625	-11869.228515625	-7.916651725769043
0.231	-0.0	-0.0	-0.0	-0.0	-0.0	-0.0	7.234272956848144	0.0112683698534965	-789.5892333984375	-0.0	-0.0	-0.0	-0.0	-0.0	-0.0	239278.953125	-12450.5390625	318.07281494140625
0.2315	-0.0	-0.0	-0.0	-0.0	-0.0	-0.0	7.165603160858154	0.3246137201786041	-791.2562255859375	-0.0	-0.0	-0.0	-0.0	-0.0	-0.0	239130.78125	-12750.4248046875	384.1331787109375
0.232	-0.0	-0.0	-0.0	-0.0	-0.0	-0.0	6.999203681945801	-0.2054056972265243	-790.0868530273438	-0.0	-0.0	-0.0	-0.0	-0.0	-0.0	239415.140625	-13296.509765625	541.8706665039062
0.2325	-0.0	-0.0	-0.0	-0.0	-0.0	-0.0	7.134962558746338	0.4704827070236206	-788.3843994140625	-0.0	-0.0	-0.0	-0.0	-0.0	-0.0	238871.421875	-13767.791015625	519.180419921875
0.233	-0.0	-0.0	-0.0	-0.0	-0.0	-0.0	7.09686279296875	0.137086421251297	-787.9934692382812	-0.0	-0.0	-0.0	-0.0	-0.0	-0.0	238463.875	-13905.333984375	631.5772705078125
0.2335	-0.0	-0.0	-0.0	-0.0	-0.0	-0.0	6.890254497528076	-0.0395085327327251	-784.7366333007812	-0.0	-0.0	-0.0	-0.0	-0.0	-0.0	237767.71875	-14712.087890625	693.7979736328125
0.234	-0.0	-0.0	-0.0	-0.0	-0.0	-0.0	7.09686279296875	-0.32411590218544	-783.4962158203125	-0.0	-0.0	-0.0	-0.0	-0.0	-0.0	237408.140625	-14733.8330078125	786.2991943359375
0.23450000000000001	-0.0	-0.0	-0.0	-0.0	-0.0	-0.0	7.747725486755371	-0.7852919697761536	-780.5872802734375	-0.0	-0.0	-0.0	-0.0	-0.0	-0.0	237145.203125	-15138.298828125	971.16357421875
0.23500000000000001	-0.0	-0.0	-0.0	-0.0	-0.0	-0.0	8.703639030456543	-1.266094446182251	-780.9352416992188	-0.0	-0.0	-0.0	-0.0	-0.0	-0.0	236372.671875	-15544.0205078125	1489.1461181640625
0.23550000000000001	-0.0	-0.0	-0.0	-0.0	-0.0	-0.0	9.206220626831056	-1.6682493686676023	-779.3844604492188	-0.0	-0.0	-0.0	-0.0	-0.0	-0.0	235601.59375	-15981.904296875	1706.837158203125
0.23600000000000002	-0.0	-0.0	-0.0	-0.0	-0.0	-0.0	9.23597812652588	-2.050976276397705	-777.0189208984375	-0.0	-0.0	-0.0	-0.0	-0.0	-0.0	234850.984375	-16368.7724609375	1726.412109375
0.23650000000000002	-0.0	-0.0	-0.0	-0.0	-0.0	-0.0	9.502220153808594	-2.473007202148437	-775.7776489257812	-0.0	-0.0	-0.0	-0.0	-0.0	-0.0	234462.25	-16748.732421875	1808.8369140625
0.23700000000000002	-0.0	-0.0	-0.0	-0.0	-0.0	-0.0	9.373428344726562	-3.4250330924987797	-774.5725708007812	-0.0	-0.0	-0.0	-0.0	-0.0	-0.0	234448.65625	-17047.09375	1894.2916259765625
0.23750000000000002	-0.0	-0.0	-0.0	-0.0	-0.0	-0.0	9.886019706726074	-3.935525417327881	-773.6430053710938	-0.0	-0.0	-0.0	-0.0	-0.0	-0.0	234307.40625	-17219.232421875	2016.186279296875
0.23800000000000002	-0.0	-0.0	-0.0	-0.0	-0.0	-0.0	10.201740264892578	-3.601741313934326	-773.5662231445312	-0.0	-0.0	-0.0	-0.0	-0.0	-0.0	234471.234375	-17136.701171875	2148.683349609375
0.23850000000000002	-0.0	-0.0	-0.0	-0.0	-0.0	-0.0	10.545856475830078	-2.96411657333374	-773.5665283203125	-0.0	-0.0	-0.0	-0.0	-0.0	-0.0	234561.34375	-17615.58203125	2416.0537109375
0.23900000000000002	-0.0	-0.0	-0.0	-0.0	-0.0	-0.0	11.8179931640625	-2.856496334075928	-772.28955078125	-0.0	-0.0	-0.0	-0.0	-0.0	-0.0	234327.4375	-17681.7734375	2525.48583984375
0.23950000000000002	-0.0	-0.0	-0.0	-0.0	-0.0	-0.0	11.926091194152832	-1.8051095008850095	-770.587890625	-0.0	-0.0	-0.0	-0.0	-0.0	-0.0	233805.984375	-17454.611328125	2773.27392578125
0.24	-0.0	-0.0	-0.0	-0.0	-0.0	-0.0	12.43064785003662	-2.03139877319336	-768.0572509765625	-0.0	-0.0	-0.0	-0.0	-0.0	-0.0	233222.578125	-17545.4296875	2893.185302734375
0.2405	-0.0	-0.0	-0.0	-0.0	-0.0	-0.0	11.96466827392578	-2.0699405670166016	-764.8832397460938	-0.0	-0.0	-0.0	-0.0	-0.0	-0.0	232393.046875	-17475.77734375	2684.21923828125
0.241	-0.0	-0.0	-0.0	-0.0	-0.0	-0.0	11.709823608398438	-2.1966545581817627	-760.8013916015625	-0.0	-0.0	-0.0	-0.0	-0.0	-0.0	231708.203125	-17134.47265625	2633.760498046875
0.2415	-0.0	-0.0	-0.0	-0.0	-0.0	-0.0	11.335686683654783	-2.8262939453125	-757.9776000976562	-0.0	-0.0	-0.0	-0.0	-0.0	-0.0	230750.765625	-17138.13671875	2535.2392578125
0.242	-0.0	-0.0	-0.0	-0.0	-0.0	-0.0	11.378350257873535	-2.9529597759246826	-753.8941650390625	-0.0	-0.0	-0.0	-0.0	-0.0	-0.0	230221.125	-16643.6328125	2346.89404296875
0.2425	-0.0	-0.0	-0.0	-0.0	-0.0	-0.0	11.14650535583496	-2.7762417793273926	-749.6751098632812	-0.0	-0.0	-0.0	-0.0	-0.0	-0.0	228681.328125	-16270.65625	2202.361083984375
0.243	-0.0	-0.0	-0.0	-0.0	-0.0	-0.0	10.525446891784668	-2.623329162597656	-744.3626708984375	-0.0	-0.0	-0.0	-0.0	-0.0	-0.0	227844.859375	-15908.68359375	2231.62255859375
0.2435	-0.0	-0.0	-0.0	-0.0	-0.0	-0.0	10.467872619628906	-2.561328887939453	-742.2210083007812	-0.0	-0.0	-0.0	-0.0	-0.0	-0.0	227056.5625	-16102.5927734375	2047.2081298828125
0.244	-0.0	-0.0	-0.0	-0.0	-0.0	-0.0	10.144391059875488	-2.895583152770996	-738.6543579101562	-0.0	-0.0	-0.0	-0.0	-0.0	-0.0	226596.140625	-15992.5048828125	1849.7442626953125
0.2445	-0.0	-0.0	-0.0	-0.0	-0.0	-0.0	10.34771728515625	-2.706665515899658	-736.0867309570312	-0.0	-0.0	-0.0	-0.0	-0.0	-0.0	226451.828125	-16280.8955078125	1790.6458740234375
